<?xml version="1.0" encoding="UTF-8" standalone="no"?>
<svg
   xmlns:dc="http://purl.org/dc/elements/1.1/"
   xmlns:cc="http://creativecommons.org/ns#"
   xmlns:rdf="http://www.w3.org/1999/02/22-rdf-syntax-ns#"
   xmlns:svg="http://www.w3.org/2000/svg"
   xmlns="http://www.w3.org/2000/svg"
   viewBox="0 0 891.59601 378.67468"
   height="378.67468"
   width="891.59601"
   xml:space="preserve"
   id="svg2"
   version="1.1"><metadata
     id="metadata8"><rdf:RDF><cc:Work
         rdf:about=""><dc:format>image/svg+xml</dc:format><dc:type
           rdf:resource="http://purl.org/dc/dcmitype/StillImage" /></cc:Work></rdf:RDF></metadata><defs
     id="defs6"><clipPath
       id="clipPath18"
       clipPathUnits="userSpaceOnUse"><path
         id="path16"
         d="M 0,284.006 H 668.697 V 0 H 0 Z" /></clipPath></defs><g
     transform="matrix(1.3333333,0,0,-1.3333333,0,378.67467)"
     id="g10"><g
       id="g12"><g
         clip-path="url(#clipPath18)"
         id="g14"><g
           transform="translate(85.8099,152.3299)"
           id="g20"><path
             id="path22"
             style="fill:#93999d;fill-opacity:1;fill-rule:nonzero;stroke:none"
             d="m 0,0 v 0 c 0,3.608 2.925,6.533 6.533,6.533 h 13.694 c 3.608,0 6.533,-2.925 6.533,-6.533 0,-3.608 -2.925,-6.533 -6.533,-6.533 H 6.533 C 2.925,-6.533 0,-3.608 0,0" /></g><g
           transform="translate(556.1273,152.3299)"
           id="g24"><path
             id="path26"
             style="fill:#93999d;fill-opacity:1;fill-rule:nonzero;stroke:none"
             d="m 0,0 v 0 c 0,3.608 2.925,6.533 6.533,6.533 h 13.695 c 3.607,0 6.533,-2.925 6.533,-6.533 0,-3.608 -2.926,-6.533 -6.533,-6.533 H 6.533 C 2.925,-6.533 0,-3.608 0,0" /></g><g
           transform="translate(530.3089,178.4622)"
           id="g28"><path
             id="path30"
             style="fill:#93999d;fill-opacity:1;fill-rule:nonzero;stroke:none"
             d="m 0,0 v 0 c 0,3.608 2.925,6.533 6.533,6.533 h 13.694 c 3.608,0 6.533,-2.925 6.533,-6.533 0,-3.608 -2.925,-6.533 -6.533,-6.533 H 6.533 C 2.925,-6.533 0,-3.608 0,0" /></g><g
           transform="translate(530.3089,126.1966)"
           id="g32"><path
             id="path34"
             style="fill:#e41f25;fill-opacity:1;fill-rule:nonzero;stroke:none"
             d="m 0,0 v 0 c 0,3.608 2.925,6.533 6.533,6.533 h 13.694 c 3.608,0 6.533,-2.925 6.533,-6.533 0,-3.607 -2.925,-6.533 -6.533,-6.533 H 6.533 C 2.925,-6.533 0,-3.607 0,0" /></g><g
           transform="translate(543.3743,152.3299)"
           id="g36"><path
             id="path38"
             style="fill:#93999d;fill-opacity:1;fill-rule:nonzero;stroke:none"
             d="m 0,0 c 0,-3.608 -2.925,-6.533 -6.532,-6.533 -3.609,0 -6.533,2.925 -6.533,6.533 0,3.608 2.924,6.533 6.533,6.533 C -2.925,6.533 0,3.608 0,0" /></g><g
           transform="translate(138.7025,126.1966)"
           id="g40"><path
             id="path42"
             style="fill:#93999d;fill-opacity:1;fill-rule:nonzero;stroke:none"
             d="m 0,0 v 0 c 0,-3.607 -2.925,-6.533 -6.533,-6.533 h -13.694 c -3.608,0 -6.533,2.926 -6.533,6.533 0,3.608 2.925,6.533 6.533,6.533 H -6.533 C -2.925,6.533 0,3.608 0,0" /></g><g
           transform="translate(125.6361,178.4622)"
           id="g44"><path
             id="path46"
             style="fill:#93999d;fill-opacity:1;fill-rule:nonzero;stroke:none"
             d="m 0,0 c 0,3.608 2.925,6.533 6.533,6.533 3.609,0 6.533,-2.925 6.533,-6.533 0,-3.608 -2.924,-6.533 -6.533,-6.533 C 2.925,-6.533 0,-3.608 0,0" /></g><g
           transform="translate(99.8172,178.4622)"
           id="g48"><path
             id="path50"
             style="fill:#e41f25;fill-opacity:1;fill-rule:nonzero;stroke:none"
             d="m 0,0 c 0,3.608 2.925,6.533 6.533,6.533 3.609,0 6.533,-2.925 6.533,-6.533 0,-3.608 -2.924,-6.533 -6.533,-6.533 C 2.925,-6.533 0,-3.608 0,0" /></g><g
           transform="translate(138.7025,152.3299)"
           id="g52"><path
             id="path54"
             style="fill:#93999d;fill-opacity:1;fill-rule:nonzero;stroke:none"
             d="m 0,0 c 0,-3.608 -2.925,-6.533 -6.533,-6.533 -3.608,0 -6.533,2.925 -6.533,6.533 0,3.608 2.925,6.533 6.533,6.533 C -2.925,6.533 0,3.608 0,0" /></g><g
           transform="translate(484.5765,132.7298)"
           id="g56"><path
             id="path58"
             style="fill:#2965ad;fill-opacity:1;fill-rule:nonzero;stroke:none"
             d="m 0,0 c -10.824,0 -19.6,8.775 -19.6,19.6 0,10.824 8.776,19.599 19.6,19.599 10.824,0 19.6,-8.775 19.6,-19.599 C 19.6,8.775 10.824,0 0,0 m 0,52.266 c -18.041,0 -32.666,-14.625 -32.666,-32.666 0,-18.041 14.625,-32.666 32.666,-32.666 18.041,0 32.666,14.625 32.666,32.666 0,18.041 -14.625,32.666 -32.666,32.666" /></g><g
           transform="translate(288.9651,132.7298)"
           id="g60"><path
             id="path62"
             style="fill:#2965ad;fill-opacity:1;fill-rule:nonzero;stroke:none"
             d="m 0,0 c -11.078,0 -20.009,9.191 -19.585,20.364 0.382,10.059 8.507,18.298 18.561,18.809 4.046,0.206 7.842,-0.816 11.046,-2.726 2.494,-1.487 5.663,-1.162 7.716,0.891 l 0.161,0.161 c 3.014,3.013 2.38,8.063 -1.287,10.233 C 11.579,50.711 5.678,52.377 -0.621,52.26 -17.65,51.944 -31.728,38.368 -32.62,21.359 -33.607,2.52 -18.624,-13.066 0,-13.066 c 6.044,0 11.704,1.641 16.56,4.503 3.693,2.175 4.372,7.231 1.34,10.262 L 17.888,1.712 C 15.777,3.822 12.511,4.221 9.94,2.704 7.026,0.986 3.628,0 0,0" /></g><g
           transform="translate(429.2493,184.9954)"
           id="g64"><path
             id="path66"
             style="fill:#2965ad;fill-opacity:1;fill-rule:nonzero;stroke:none"
             d="m 0,0 c -7.354,0 -14.14,-2.432 -19.6,-6.533 0,3.608 -2.924,6.533 -6.533,6.533 -3.608,0 -6.533,-2.925 -6.533,-6.533 v -52.266 c 0,-3.608 2.925,-6.533 6.533,-6.533 3.609,0 6.533,2.925 6.533,6.533 v 26.132 0.001 c 0,10.825 8.775,19.6 19.6,19.6 3.625,0 7.021,-0.985 9.935,-2.701 2.574,-1.517 5.844,-1.12 7.958,0.994 3.035,3.035 2.355,8.099 -1.343,10.276 C 11.696,-1.639 6.039,0 0,0" /></g><g
           transform="translate(236.7,119.6634)"
           id="g68"><path
             id="path70"
             style="fill:#2965ad;fill-opacity:1;fill-rule:nonzero;stroke:none"
             d="m 0,0 v 0 c -3.608,0 -6.533,2.926 -6.533,6.533 v 81.393 c 0,3.608 2.925,6.533 6.533,6.533 3.608,0 6.533,-2.925 6.533,-6.533 V 6.533 C 6.533,2.926 3.608,0 0,0" /></g><g
           transform="translate(350.9622,184.991)"
           id="g72"><path
             id="path74"
             style="fill:#2965ad;fill-opacity:1;fill-rule:nonzero;stroke:none"
             d="m 0,0 c -18.754,0.301 -33.962,-15.205 -33.173,-34.064 0.686,-16.394 13.647,-29.865 30.003,-31.159 0.867,-0.069 1.727,-0.103 2.579,-0.104 3.63,-0.006 6.587,2.906 6.587,6.535 0,3.589 -2.892,6.541 -6.481,6.531 -0.449,-10e-4 -0.901,0.013 -1.356,0.043 -9.946,0.651 -17.906,8.84 -18.281,18.8 -0.42,11.144 8.47,20.315 19.511,20.356 10.905,0.041 19.673,-9.013 19.673,-19.918 v -25.814 c 0,-3.609 2.925,-6.534 6.534,-6.534 h 0.001 c 3.607,0 6.532,2.926 6.532,6.534 v 25.693 C 32.129,-15.196 17.902,-0.287 0,0" /></g><g
           transform="translate(165.1014,86.0804)"
           id="g76"><path
             id="path78"
             style="fill:#93999d;fill-opacity:1;fill-rule:nonzero;stroke:none"
             d="M 0,0 C -0.063,1.397 -0.514,2.557 -1.35,3.478 -2.187,4.399 -3.377,4.859 -4.923,4.859 -5.643,4.859 -6.31,4.728 -6.924,4.463 -7.538,4.197 -8.078,3.838 -8.543,3.383 -9.009,2.928 -9.38,2.408 -9.655,1.826 -9.93,1.244 -10.089,0.636 -10.131,0 Z m 2.191,-0.698 v -0.477 c 0,-0.17 -0.01,-0.349 -0.031,-0.54 h -12.323 c 0.021,-0.741 0.169,-1.44 0.444,-2.096 0.276,-0.657 0.656,-1.228 1.144,-1.714 0.487,-0.489 1.058,-0.874 1.715,-1.16 0.656,-0.286 1.365,-0.428 2.128,-0.428 1.122,0 2.09,0.259 2.906,0.777 0.815,0.519 1.434,1.117 1.858,1.795 l 1.619,-1.271 c -0.889,-1.123 -1.868,-1.926 -2.937,-2.414 -1.069,-0.486 -2.218,-0.73 -3.446,-0.73 -1.101,0 -2.123,0.196 -3.065,0.588 -0.942,0.391 -1.752,0.936 -2.43,1.636 -0.677,0.698 -1.212,1.524 -1.604,2.477 -0.392,0.952 -0.587,1.989 -0.587,3.112 0,1.122 0.19,2.16 0.572,3.113 0.381,0.952 0.91,1.778 1.588,2.477 0.677,0.699 1.471,1.243 2.382,1.635 0.91,0.392 1.894,0.588 2.953,0.588 1.165,0 2.192,-0.196 3.081,-0.588 C -0.953,5.69 -0.212,5.161 0.381,4.495 0.974,3.827 1.424,3.05 1.731,2.16 2.038,1.271 2.191,0.317 2.191,-0.698" /></g><g
           transform="translate(180.5682,77.5062)"
           id="g80"><path
             id="path82"
             style="fill:#93999d;fill-opacity:1;fill-rule:nonzero;stroke:none"
             d="m 0,0 h -2.382 l -6.066,14.863 h 2.414 L -1.207,2.286 h 0.063 l 4.86,12.577 h 2.318 z" /></g><g
           transform="translate(203.848,86.0804)"
           id="g84"><path
             id="path86"
             style="fill:#93999d;fill-opacity:1;fill-rule:nonzero;stroke:none"
             d="M 0,0 C -0.063,1.397 -0.514,2.557 -1.35,3.478 -2.187,4.399 -3.377,4.859 -4.923,4.859 -5.643,4.859 -6.31,4.728 -6.924,4.463 -7.538,4.197 -8.078,3.838 -8.543,3.383 -9.01,2.928 -9.38,2.408 -9.655,1.826 -9.931,1.244 -10.089,0.636 -10.131,0 Z m 2.191,-0.698 v -0.477 c 0,-0.17 -0.011,-0.349 -0.031,-0.54 h -12.323 c 0.02,-0.741 0.169,-1.44 0.444,-2.096 0.275,-0.657 0.656,-1.228 1.144,-1.714 0.487,-0.489 1.058,-0.874 1.715,-1.16 0.656,-0.286 1.365,-0.428 2.128,-0.428 1.122,0 2.09,0.259 2.906,0.777 0.814,0.519 1.434,1.117 1.858,1.795 l 1.619,-1.271 c -0.889,-1.123 -1.869,-1.926 -2.938,-2.414 -1.069,-0.486 -2.218,-0.73 -3.445,-0.73 -1.101,0 -2.123,0.196 -3.065,0.588 -0.942,0.391 -1.752,0.936 -2.43,1.636 -0.678,0.698 -1.212,1.524 -1.604,2.477 -0.392,0.952 -0.587,1.989 -0.587,3.112 0,1.122 0.19,2.16 0.571,3.113 0.382,0.952 0.91,1.778 1.588,2.477 0.678,0.699 1.472,1.243 2.383,1.635 0.91,0.392 1.894,0.588 2.953,0.588 1.164,0 2.192,-0.196 3.081,-0.588 C -0.953,5.69 -0.212,5.161 0.381,4.495 0.974,3.827 1.423,3.05 1.731,2.16 2.037,1.271 2.191,0.317 2.191,-0.698" /></g><g
           transform="translate(213.1849,90.6546)"
           id="g88"><path
             id="path90"
             style="fill:#93999d;fill-opacity:1;fill-rule:nonzero;stroke:none"
             d="M 0,0 C -0.021,0.635 -0.053,1.207 -0.095,1.715 H 1.969 C 2.011,1.312 2.043,0.868 2.064,0.381 2.085,-0.106 2.096,-0.509 2.096,-0.826 H 2.16 c 0.423,0.868 1.058,1.572 1.905,2.112 0.847,0.54 1.8,0.81 2.859,0.81 0.275,0 0.524,-0.011 0.746,-0.033 C 7.893,2.043 8.12,2.001 8.353,1.937 L 8.067,-0.127 C 7.94,-0.085 7.728,-0.043 7.432,0 7.135,0.042 6.839,0.063 6.542,0.063 5.971,0.063 5.42,-0.042 4.891,-0.254 4.362,-0.466 3.901,-0.798 3.51,-1.252 3.118,-1.706 2.8,-2.286 2.557,-2.994 2.313,-3.702 2.191,-4.553 2.191,-5.545 v -7.603 H 0.032 V -1.557 C 0.032,-1.155 0.021,-0.636 0,0" /></g><g
           transform="translate(232.3035,79.8235)"
           id="g92"><path
             id="path94"
             style="fill:#93999d;fill-opacity:1;fill-rule:nonzero;stroke:none"
             d="m 0,0 h 0.064 l 4.605,12.546 h 2.35 l -7.4,-18.707 C -0.826,-7.305 -1.392,-8.22 -2.08,-8.908 -2.769,-9.596 -3.758,-9.94 -5.05,-9.94 c -0.656,0 -1.302,0.063 -1.937,0.19 l 0.222,1.97 c 0.509,-0.17 1.037,-0.255 1.588,-0.255 0.741,0 1.323,0.228 1.747,0.683 0.423,0.456 0.794,1.107 1.112,1.954 l 1.207,3.112 -6.352,14.832 h 2.413 z" /></g><g
           transform="translate(251.931,90.5589)"
           id="g96"><path
             id="path98"
             style="fill:#93999d;fill-opacity:1;fill-rule:nonzero;stroke:none"
             d="m 0,0 h -4.192 v -8.671 c 0,-0.55 0.052,-1.006 0.158,-1.365 0.106,-0.36 0.26,-0.641 0.461,-0.842 0.201,-0.201 0.439,-0.339 0.715,-0.412 0.275,-0.075 0.571,-0.111 0.889,-0.111 0.296,0 0.608,0.042 0.937,0.127 0.328,0.084 0.64,0.2 0.937,0.349 L 0,-12.799 c -0.381,-0.148 -0.778,-0.26 -1.191,-0.334 -0.413,-0.073 -0.863,-0.11 -1.35,-0.11 -0.402,0 -0.826,0.053 -1.27,0.158 -0.445,0.106 -0.857,0.307 -1.239,0.604 -0.381,0.295 -0.694,0.698 -0.937,1.207 -0.243,0.507 -0.365,1.174 -0.365,2.001 V 0 h -3.081 v 1.811 h 3.081 v 4.192 h 2.16 V 1.811 H 0 Z" /></g><g
           transform="translate(260.1243,89.9232)"
           id="g100"><path
             id="path102"
             style="fill:#93999d;fill-opacity:1;fill-rule:nonzero;stroke:none"
             d="m 0,0 c 0.402,0.868 1.069,1.557 2.001,2.064 0.932,0.509 1.927,0.763 2.985,0.763 1.885,0 3.298,-0.561 4.241,-1.683 0.941,-1.123 1.413,-2.604 1.413,-4.447 v -9.114 H 8.48 v 8.226 c 0,0.783 -0.063,1.492 -0.19,2.128 C 8.163,-1.429 7.945,-0.884 7.639,-0.428 7.331,0.026 6.918,0.382 6.4,0.636 5.88,0.89 5.229,1.017 4.447,1.017 3.875,1.017 3.319,0.9 2.779,0.667 2.239,0.435 1.757,0.08 1.334,-0.396 0.91,-0.873 0.572,-1.477 0.318,-2.207 0.063,-2.938 -0.063,-3.8 -0.063,-4.795 v -7.622 h -2.16 v 24.01 h 2.16 L -0.063,0 Z" /></g><path
           id="path104"
           style="fill:#93999d;fill-opacity:1;fill-rule:nonzero;stroke:none"
           d="m 281.086,77.506 h -2.16 v 14.863 h 2.16 z m 0.444,20.58 c 0,-0.445 -0.159,-0.81 -0.476,-1.095 -0.318,-0.287 -0.667,-0.429 -1.048,-0.429 -0.381,0 -0.731,0.142 -1.048,0.429 -0.318,0.285 -0.477,0.65 -0.477,1.095 0,0.445 0.159,0.81 0.477,1.096 0.317,0.285 0.667,0.429 1.048,0.429 0.381,0 0.73,-0.144 1.048,-0.429 0.317,-0.286 0.476,-0.651 0.476,-1.096" /><g
           transform="translate(291.3123,92.3694)"
           id="g106"><path
             id="path108"
             style="fill:#93999d;fill-opacity:1;fill-rule:nonzero;stroke:none"
             d="m 0,0 c 0.042,-0.402 0.074,-0.847 0.095,-1.334 0.021,-0.487 0.032,-0.89 0.032,-1.207 H 0.19 c 0.424,0.868 1.112,1.572 2.065,2.112 0.953,0.54 1.958,0.81 3.017,0.81 1.884,0 3.298,-0.562 4.24,-1.684 0.942,-1.122 1.413,-2.603 1.413,-4.446 v -9.114 H 8.766 v 8.225 c 0,0.784 -0.064,1.492 -0.191,2.128 -0.127,0.635 -0.344,1.18 -0.651,1.636 -0.307,0.454 -0.72,0.81 -1.238,1.063 C 6.167,-1.557 5.515,-1.43 4.732,-1.43 4.161,-1.43 3.605,-1.546 3.065,-1.779 2.525,-2.012 2.043,-2.366 1.62,-2.843 1.196,-3.319 0.857,-3.923 0.604,-4.653 0.349,-5.384 0.222,-6.246 0.222,-7.241 v -7.622 h -2.159 v 11.592 c 0,0.401 -0.011,0.92 -0.032,1.556 C -1.99,-1.08 -2.022,-0.508 -2.064,0 Z" /></g><g
           transform="translate(311.575,85.1282)"
           id="g110"><path
             id="path112"
             style="fill:#93999d;fill-opacity:1;fill-rule:nonzero;stroke:none"
             d="M 0,0 C 0,-0.784 0.127,-1.524 0.381,-2.224 0.635,-2.922 1,-3.536 1.477,-4.065 c 0.476,-0.53 1.064,-0.949 1.762,-1.255 0.699,-0.307 1.493,-0.46 2.383,-0.46 0.825,0 1.587,0.136 2.286,0.413 0.699,0.274 1.302,0.667 1.81,1.175 0.509,0.507 0.906,1.116 1.192,1.826 0.285,0.709 0.428,1.497 0.428,2.366 0,0.783 -0.143,1.524 -0.428,2.223 C 10.624,2.922 10.227,3.535 9.718,4.064 9.21,4.594 8.607,5.018 7.908,5.336 7.209,5.653 6.447,5.812 5.622,5.812 4.732,5.812 3.938,5.653 3.239,5.336 2.541,5.018 1.953,4.594 1.477,4.064 1,3.535 0.635,2.922 0.381,2.223 0.127,1.524 0,0.783 0,0 m -0.413,-10.607 c 0.593,-0.763 1.403,-1.409 2.43,-1.938 1.026,-0.529 2.112,-0.795 3.255,-0.795 1.059,0 1.958,0.154 2.7,0.461 0.741,0.308 1.339,0.726 1.794,1.255 0.455,0.529 0.789,1.148 1.001,1.857 0.211,0.71 0.317,1.467 0.317,2.272 V -4.7 H 11.021 C 10.449,-5.633 9.639,-6.353 8.591,-6.86 7.543,-7.368 6.479,-7.622 5.399,-7.622 c -1.165,0 -2.218,0.189 -3.16,0.571 -0.942,0.381 -1.747,0.905 -2.414,1.572 -0.667,0.667 -1.186,1.466 -1.556,2.398 -0.371,0.932 -0.556,1.937 -0.556,3.018 0,1.058 0.185,2.052 0.556,2.985 0.37,0.932 0.889,1.747 1.556,2.445 0.667,0.699 1.472,1.249 2.414,1.652 0.942,0.402 1.995,0.603 3.16,0.603 1.08,0 2.139,-0.254 3.176,-0.763 1.037,-0.507 1.853,-1.238 2.446,-2.19 h 0.063 v 2.572 h 2.16 V -7.495 c 0,-0.805 -0.112,-1.662 -0.334,-2.573 -0.222,-0.911 -0.635,-1.746 -1.238,-2.509 -0.604,-0.763 -1.424,-1.398 -2.462,-1.905 -1.037,-0.509 -2.381,-0.763 -4.033,-0.763 -1.377,0 -2.689,0.265 -3.938,0.794 -1.25,0.529 -2.319,1.26 -3.208,2.191 z" /></g><path
           id="path114"
           style="fill:#93999d;fill-opacity:1;fill-rule:nonzero;stroke:none"
           d="m 345.653,77.506 h -2.159 v 14.863 h 2.159 z m 0.444,20.58 c 0,-0.445 -0.158,-0.81 -0.476,-1.095 -0.318,-0.287 -0.667,-0.429 -1.048,-0.429 -0.381,0 -0.731,0.142 -1.048,0.429 -0.318,0.285 -0.477,0.65 -0.477,1.095 0,0.445 0.159,0.81 0.477,1.096 0.317,0.285 0.667,0.429 1.048,0.429 0.381,0 0.73,-0.144 1.048,-0.429 0.318,-0.286 0.476,-0.651 0.476,-1.096" /><g
           transform="translate(361.8499,88.8441)"
           id="g116"><path
             id="path118"
             style="fill:#93999d;fill-opacity:1;fill-rule:nonzero;stroke:none"
             d="M 0,0 C -0.317,0.614 -0.799,1.116 -1.444,1.509 -2.091,1.9 -2.826,2.096 -3.652,2.096 -4.033,2.096 -4.414,2.053 -4.795,1.969 -5.177,1.884 -5.516,1.746 -5.812,1.556 -6.108,1.365 -6.347,1.122 -6.526,0.825 c -0.18,-0.296 -0.27,-0.645 -0.27,-1.048 0,-0.698 0.285,-1.233 0.858,-1.603 0.571,-0.371 1.471,-0.683 2.699,-0.938 1.758,-0.36 3.053,-0.883 3.89,-1.571 0.836,-0.688 1.255,-1.615 1.255,-2.779 0,-0.848 -0.165,-1.562 -0.492,-2.144 -0.329,-0.583 -0.758,-1.059 -1.286,-1.43 -0.53,-0.37 -1.128,-0.634 -1.795,-0.793 -0.667,-0.159 -1.34,-0.239 -2.017,-0.239 -1.123,0 -2.212,0.234 -3.271,0.699 -1.059,0.466 -1.927,1.196 -2.605,2.192 l 1.715,1.27 c 0.382,-0.657 0.943,-1.207 1.684,-1.651 0.741,-0.445 1.557,-0.667 2.445,-0.667 0.466,0 0.91,0.042 1.334,0.126 0.424,0.085 0.794,0.233 1.112,0.445 0.318,0.211 0.572,0.482 0.762,0.81 0.191,0.328 0.286,0.736 0.286,1.223 0,0.783 -0.377,1.371 -1.128,1.762 -0.752,0.392 -1.837,0.757 -3.254,1.096 -0.446,0.106 -0.917,0.238 -1.414,0.397 -0.498,0.16 -0.959,0.392 -1.381,0.699 -0.424,0.306 -0.774,0.693 -1.048,1.16 -0.277,0.465 -0.413,1.048 -0.413,1.746 0,0.762 0.147,1.413 0.444,1.953 0.296,0.54 0.693,0.984 1.191,1.334 0.497,0.35 1.064,0.608 1.7,0.778 0.634,0.169 1.291,0.254 1.968,0.254 1.037,0 2.043,-0.233 3.017,-0.699 C 0.434,2.742 1.164,2.085 1.652,1.238 Z" /></g><g
           transform="translate(394.3079,84.9378)"
           id="g120"><path
             id="path122"
             style="fill:#93999d;fill-opacity:1;fill-rule:nonzero;stroke:none"
             d="M 0,0 C 0,0.825 -0.127,1.604 -0.381,2.334 -0.635,3.064 -1,3.699 -1.477,4.24 -1.953,4.779 -2.54,5.208 -3.239,5.526 -3.938,5.844 -4.731,6.002 -5.621,6.002 -6.447,6.002 -7.209,5.849 -7.908,5.542 -8.606,5.234 -9.21,4.812 -9.718,4.271 -10.227,3.731 -10.623,3.097 -10.909,2.366 -11.195,1.636 -11.338,0.847 -11.338,0 c 0,-0.848 0.143,-1.636 0.429,-2.366 0.286,-0.731 0.682,-1.362 1.191,-1.89 0.508,-0.53 1.112,-0.948 1.81,-1.255 0.699,-0.307 1.461,-0.46 2.287,-0.46 0.89,0 1.683,0.153 2.382,0.46 0.699,0.307 1.286,0.731 1.762,1.271 0.477,0.54 0.842,1.175 1.096,1.905 C -0.127,-1.604 0,-0.826 0,0 m -11.084,-15.055 h -2.159 V 7.432 h 2.159 V 4.859 h 0.096 c 0.613,0.974 1.433,1.709 2.461,2.207 1.027,0.497 2.069,0.746 3.129,0.746 1.164,0 2.217,-0.201 3.159,-0.603 C -1.297,6.807 -0.492,6.257 0.175,5.558 0.842,4.859 1.36,4.033 1.731,3.08 2.102,2.128 2.287,1.101 2.287,0 2.287,-1.102 2.102,-2.128 1.731,-3.081 1.36,-4.034 0.842,-4.859 0.175,-5.559 -0.492,-6.257 -1.297,-6.808 -2.239,-7.21 c -0.942,-0.401 -1.995,-0.603 -3.159,-0.603 -1.06,0 -2.102,0.25 -3.129,0.747 -1.028,0.497 -1.848,1.211 -2.461,2.143 h -0.096 z" /></g><g
           transform="translate(416.2542,84.9378)"
           id="g124"><path
             id="path126"
             style="fill:#93999d;fill-opacity:1;fill-rule:nonzero;stroke:none"
             d="M 0,0 C 0,0.825 -0.133,1.604 -0.397,2.334 -0.662,3.064 -1.038,3.699 -1.524,4.24 -2.012,4.779 -2.604,5.208 -3.303,5.526 -4.002,5.844 -4.785,6.002 -5.653,6.002 -6.521,6.002 -7.3,5.844 -7.987,5.526 -8.676,5.208 -9.264,4.779 -9.75,4.24 -10.237,3.699 -10.613,3.064 -10.878,2.334 -11.143,1.604 -11.274,0.825 -11.274,0 c 0,-0.826 0.131,-1.604 0.396,-2.335 0.265,-0.73 0.641,-1.365 1.128,-1.905 0.486,-0.54 1.074,-0.964 1.763,-1.271 0.687,-0.307 1.466,-0.46 2.334,-0.46 0.868,0 1.651,0.153 2.35,0.46 0.699,0.307 1.291,0.731 1.779,1.271 0.486,0.54 0.862,1.175 1.127,1.905 C -0.133,-1.604 0,-0.826 0,0 m 2.287,0 c 0,-1.123 -0.196,-2.16 -0.588,-3.112 -0.392,-0.953 -0.936,-1.78 -1.636,-2.478 -0.698,-0.699 -1.535,-1.244 -2.508,-1.636 -0.975,-0.391 -2.044,-0.587 -3.208,-0.587 -1.144,0 -2.202,0.196 -3.176,0.587 -0.975,0.392 -1.811,0.937 -2.509,1.636 -0.699,0.698 -1.244,1.525 -1.636,2.478 -0.392,0.952 -0.588,1.989 -0.588,3.112 0,1.121 0.196,2.159 0.588,3.112 0.392,0.952 0.937,1.779 1.636,2.478 0.698,0.698 1.534,1.243 2.509,1.635 0.974,0.391 2.032,0.587 3.176,0.587 1.164,0 2.233,-0.196 3.208,-0.587 C -1.472,6.833 -0.635,6.288 0.063,5.59 0.763,4.891 1.307,4.064 1.699,3.112 2.091,2.159 2.287,1.121 2.287,0" /></g><g
           transform="translate(433.6263,88.8441)"
           id="g128"><path
             id="path130"
             style="fill:#93999d;fill-opacity:1;fill-rule:nonzero;stroke:none"
             d="M 0,0 C -0.317,0.614 -0.799,1.116 -1.444,1.509 -2.091,1.9 -2.826,2.096 -3.652,2.096 -4.033,2.096 -4.414,2.053 -4.796,1.969 -5.177,1.884 -5.516,1.746 -5.812,1.556 -6.108,1.365 -6.347,1.122 -6.526,0.825 -6.706,0.529 -6.797,0.18 -6.797,-0.223 c 0,-0.698 0.286,-1.233 0.859,-1.603 0.571,-0.371 1.47,-0.683 2.699,-0.938 1.757,-0.36 3.053,-0.883 3.89,-1.571 0.836,-0.688 1.254,-1.615 1.254,-2.779 0,-0.848 -0.164,-1.562 -0.492,-2.144 -0.328,-0.583 -0.757,-1.059 -1.286,-1.43 -0.529,-0.37 -1.127,-0.634 -1.794,-0.793 -0.667,-0.159 -1.34,-0.239 -2.017,-0.239 -1.123,0 -2.212,0.234 -3.271,0.699 -1.059,0.466 -1.927,1.196 -2.605,2.192 l 1.715,1.27 c 0.382,-0.657 0.943,-1.207 1.684,-1.651 0.741,-0.445 1.557,-0.667 2.445,-0.667 0.466,0 0.91,0.042 1.334,0.126 0.423,0.085 0.794,0.233 1.111,0.445 0.319,0.211 0.573,0.482 0.763,0.81 0.191,0.328 0.286,0.736 0.286,1.223 0,0.783 -0.377,1.371 -1.128,1.762 -0.752,0.392 -1.837,0.757 -3.254,1.096 -0.446,0.106 -0.917,0.238 -1.415,0.397 -0.497,0.16 -0.958,0.392 -1.38,0.699 -0.424,0.306 -0.774,0.693 -1.049,1.16 -0.276,0.465 -0.412,1.048 -0.412,1.746 0,0.762 0.147,1.413 0.444,1.953 0.296,0.54 0.693,0.984 1.191,1.334 0.497,0.35 1.064,0.608 1.699,0.778 0.635,0.169 1.292,0.254 1.969,0.254 1.037,0 2.043,-0.233 3.017,-0.699 C 0.434,2.742 1.164,2.085 1.651,1.238 Z" /></g><g
           transform="translate(450.2679,88.8441)"
           id="g132"><path
             id="path134"
             style="fill:#93999d;fill-opacity:1;fill-rule:nonzero;stroke:none"
             d="M 0,0 C -0.317,0.614 -0.799,1.116 -1.444,1.509 -2.091,1.9 -2.826,2.096 -3.652,2.096 -4.033,2.096 -4.414,2.053 -4.796,1.969 -5.177,1.884 -5.516,1.746 -5.812,1.556 -6.108,1.365 -6.347,1.122 -6.526,0.825 c -0.18,-0.296 -0.27,-0.645 -0.27,-1.048 0,-0.698 0.285,-1.233 0.858,-1.603 0.571,-0.371 1.47,-0.683 2.699,-0.938 1.757,-0.36 3.053,-0.883 3.89,-1.571 0.836,-0.688 1.255,-1.615 1.255,-2.779 0,-0.848 -0.165,-1.562 -0.493,-2.144 -0.328,-0.583 -0.757,-1.059 -1.286,-1.43 -0.529,-0.37 -1.127,-0.634 -1.794,-0.793 -0.667,-0.159 -1.34,-0.239 -2.017,-0.239 -1.123,0 -2.212,0.234 -3.271,0.699 -1.059,0.466 -1.927,1.196 -2.605,2.192 l 1.715,1.27 c 0.382,-0.657 0.943,-1.207 1.684,-1.651 0.741,-0.445 1.557,-0.667 2.445,-0.667 0.466,0 0.91,0.042 1.334,0.126 0.424,0.085 0.794,0.233 1.111,0.445 0.319,0.211 0.573,0.482 0.763,0.81 0.191,0.328 0.286,0.736 0.286,1.223 0,0.783 -0.377,1.371 -1.128,1.762 -0.752,0.392 -1.837,0.757 -3.254,1.096 -0.446,0.106 -0.917,0.238 -1.415,0.397 -0.497,0.16 -0.958,0.392 -1.38,0.699 -0.424,0.306 -0.774,0.693 -1.049,1.16 -0.276,0.465 -0.412,1.048 -0.412,1.746 0,0.762 0.147,1.413 0.444,1.953 0.296,0.54 0.693,0.984 1.191,1.334 0.497,0.35 1.064,0.608 1.699,0.778 0.635,0.169 1.292,0.254 1.969,0.254 1.037,0 2.043,-0.233 3.017,-0.699 C 0.434,2.742 1.164,2.085 1.651,1.238 Z" /></g><path
           id="path136"
           style="fill:#93999d;fill-opacity:1;fill-rule:nonzero;stroke:none"
           d="m 461.193,77.506 h -2.159 v 14.863 h 2.159 z m 0.445,20.58 c 0,-0.445 -0.159,-0.81 -0.477,-1.095 -0.317,-0.287 -0.667,-0.429 -1.047,-0.429 -0.382,0 -0.732,0.142 -1.049,0.429 -0.318,0.285 -0.476,0.65 -0.476,1.095 0,0.445 0.158,0.81 0.476,1.096 0.317,0.285 0.667,0.429 1.049,0.429 0.38,0 0.73,-0.144 1.047,-0.429 0.318,-0.286 0.477,-0.651 0.477,-1.096" /><g
           transform="translate(482.7894,84.9378)"
           id="g138"><path
             id="path140"
             style="fill:#93999d;fill-opacity:1;fill-rule:nonzero;stroke:none"
             d="M 0,0 C 0,0.825 -0.127,1.604 -0.381,2.334 -0.635,3.064 -1,3.699 -1.477,4.24 -1.953,4.779 -2.54,5.208 -3.239,5.526 -3.938,5.844 -4.732,6.002 -5.621,6.002 -6.447,6.002 -7.209,5.849 -7.908,5.542 -8.606,5.234 -9.21,4.812 -9.718,4.271 -10.227,3.731 -10.623,3.097 -10.909,2.366 -11.195,1.636 -11.338,0.847 -11.338,0 c 0,-0.848 0.143,-1.636 0.429,-2.366 0.286,-0.731 0.682,-1.362 1.191,-1.89 0.508,-0.53 1.112,-0.948 1.81,-1.255 0.699,-0.307 1.461,-0.46 2.287,-0.46 0.889,0 1.683,0.153 2.382,0.46 0.699,0.307 1.286,0.731 1.762,1.271 0.477,0.54 0.842,1.175 1.096,1.905 C -0.127,-1.604 0,-0.826 0,0 m -11.084,-4.923 v -2.509 h -2.159 v 24.01 h 2.159 V 4.859 h 0.063 c 0.636,0.974 1.461,1.709 2.478,2.207 1.017,0.497 2.064,0.746 3.145,0.746 1.164,0 2.216,-0.201 3.159,-0.603 C -1.297,6.807 -0.492,6.257 0.175,5.558 0.842,4.859 1.36,4.033 1.731,3.08 2.102,2.128 2.287,1.101 2.287,0 2.287,-1.102 2.102,-2.128 1.731,-3.081 1.36,-4.034 0.842,-4.859 0.175,-5.559 -0.492,-6.257 -1.297,-6.808 -2.239,-7.21 c -0.943,-0.401 -1.995,-0.603 -3.159,-0.603 -1.081,0 -2.128,0.244 -3.145,0.73 -1.017,0.487 -1.842,1.207 -2.478,2.16 z" /></g><path
           id="path142"
           style="fill:#93999d;fill-opacity:1;fill-rule:nonzero;stroke:none"
           d="m 494.477,77.506 h -2.159 v 24.01 h 2.159 z" /><g
           transform="translate(514.136,86.0804)"
           id="g144"><path
             id="path146"
             style="fill:#93999d;fill-opacity:1;fill-rule:nonzero;stroke:none"
             d="M 0,0 C -0.063,1.397 -0.514,2.557 -1.35,3.478 -2.187,4.399 -3.377,4.859 -4.923,4.859 -5.643,4.859 -6.31,4.728 -6.924,4.463 -7.538,4.197 -8.078,3.838 -8.543,3.383 -9.009,2.928 -9.38,2.408 -9.655,1.826 -9.931,1.244 -10.089,0.636 -10.131,0 Z m 2.191,-0.698 v -0.477 c 0,-0.17 -0.01,-0.349 -0.031,-0.54 h -12.323 c 0.02,-0.741 0.169,-1.44 0.444,-2.096 0.276,-0.657 0.656,-1.228 1.144,-1.714 0.487,-0.489 1.058,-0.874 1.715,-1.16 0.656,-0.286 1.366,-0.428 2.128,-0.428 1.122,0 2.09,0.259 2.906,0.777 0.815,0.519 1.434,1.117 1.858,1.795 l 1.619,-1.271 c -0.888,-1.123 -1.869,-1.926 -2.937,-2.414 -1.069,-0.486 -2.219,-0.73 -3.446,-0.73 -1.101,0 -2.122,0.196 -3.065,0.588 -0.942,0.391 -1.752,0.936 -2.43,1.636 -0.677,0.698 -1.211,1.524 -1.603,2.477 -0.393,0.952 -0.588,1.989 -0.588,3.112 0,1.122 0.19,2.16 0.572,3.113 0.381,0.952 0.909,1.778 1.587,2.477 0.678,0.699 1.472,1.243 2.383,1.635 0.91,0.392 1.895,0.588 2.953,0.588 1.164,0 2.192,-0.196 3.081,-0.588 C -0.953,5.69 -0.212,5.161 0.381,4.495 0.974,3.827 1.424,3.05 1.731,2.16 2.038,1.271 2.191,0.317 2.191,-0.698" /></g><g
           transform="translate(183.6424,184.9861)"
           id="g148"><path
             id="path150"
             style="fill:#2965ad;fill-opacity:1;fill-rule:nonzero;stroke:none"
             d="m 0,0 c -17.831,-0.421 -31.872,-14.616 -31.872,-33.179 0,-17.519 14.622,-32.144 32.662,-32.144 6.04,0 11.697,1.64 16.55,4.497 3.699,2.178 4.378,7.242 1.343,10.277 -2.114,2.113 -5.384,2.51 -7.958,0.994 -2.913,-1.717 -6.309,-2.701 -9.935,-2.701 H 0.788 c 0,0 -0.001,10e-4 -0.001,10e-4 -10.811,0 -19.596,8.784 -19.596,19.599 0,10.814 8.785,19.599 19.59,19.599 H 0.79 c 8.533,0 15.789,-5.455 18.48,-13.066 H 0.79 c -3.608,0 -6.533,-2.925 -6.533,-6.533 0,-3.609 2.925,-6.533 6.533,-6.533 h 0.001 26.132 c 3.571,0 6.523,2.866 6.533,6.438 v 0.095 C 33.456,-14.353 18.402,0.435 0,0" /></g></g></g></g></svg>